<svg xmlns="http://www.w3.org/2000/svg" xmlns:xlink="http://www.w3.org/1999/xlink" width="34" height="34" viewBox="0 0 34 34">
  <defs>
    <clipPath id="clip-button_note_black">
      <rect width="34" height="34"/>
    </clipPath>
  </defs>
  <g id="button_note_black" clip-path="url(#clip-button_note_black)">
    <g id="Group_18061" data-name="Group 18061" transform="translate(-2.608 -2.608)">
      <path id="Path_12500" data-name="Path 12500" d="M23.5,7.25h4.875A1.625,1.625,0,0,1,30,8.875V26.75a3.25,3.25,0,0,1-6.5,0V5.625A1.625,1.625,0,0,0,21.875,4H5.625A1.625,1.625,0,0,0,4,5.625v19.5A4.875,4.875,0,0,0,8.875,30H26.75" transform="translate(2.607 2.607)" fill="none" stroke="#363637" stroke-linecap="round" stroke-linejoin="round" stroke-width="2"/>
      <line id="Line_467" data-name="Line 467" x2="5.838" transform="translate(13.305 13.303)" fill="none" stroke="#363637" stroke-linecap="round" stroke-linejoin="round" stroke-width="2"/>
      <line id="Line_468" data-name="Line 468" x2="5.838" transform="translate(13.305 19.146)" fill="none" stroke="#363637" stroke-linecap="round" stroke-linejoin="round" stroke-width="2"/>
      <line id="Line_469" data-name="Line 469" x2="5.838" transform="translate(13.305 25.963)" fill="none" stroke="#363637" stroke-linecap="round" stroke-linejoin="round" stroke-width="2"/>
    </g>
  </g>
</svg>
