<svg xmlns="http://www.w3.org/2000/svg" xmlns:xlink="http://www.w3.org/1999/xlink" width="20" height="20" viewBox="0 0 20 20">
  <defs>
    <clipPath id="clip-button_number">
      <rect width="20" height="20"/>
    </clipPath>
  </defs>
  <g id="button_number" clip-path="url(#clip-button_number)">
    <g id="Group_17943" data-name="Group 17943" transform="translate(-2 -2)">
      <path id="Path_12536" data-name="Path 12536" d="M0,0H24V24H0Z" fill="none"/>
      <path id="Path_12537" data-name="Path 12537" d="M14,6a2,2,0,0,1,2,2v4a2,2,0,0,1-4,0V8A2,2,0,0,1,14,6Z" fill="none" stroke="#fff" stroke-linecap="round" stroke-linejoin="round" stroke-width="1.5"/>
      <rect id="Rectangle_6804" data-name="Rectangle 6804" width="14" height="14" rx="2" transform="translate(7 3)" fill="none" stroke="#fff" stroke-linecap="round" stroke-linejoin="round" stroke-width="1.5"/>
      <path id="Path_12538" data-name="Path 12538" d="M17,17v2a2,2,0,0,1-2,2H5a2,2,0,0,1-2-2V9A2,2,0,0,1,5,7H7" fill="none" stroke="#fff" stroke-linecap="round" stroke-linejoin="round" stroke-width="1.5"/>
    </g>
  </g>
</svg>
