<svg xmlns="http://www.w3.org/2000/svg" xmlns:xlink="http://www.w3.org/1999/xlink" width="136" height="55" viewBox="0 0 136 55">
  <defs>
    <clipPath id="clip-image_logoMerge">
      <rect width="136" height="55"/>
    </clipPath>
  </defs>
  <g id="image_logoMerge" clip-path="url(#clip-image_logoMerge)">
    <g id="Group_19160" data-name="Group 19160" transform="translate(0 -0.811)">
      <g id="Group_19161" data-name="Group 19161" transform="translate(0 0.81)">
        <g id="Group_2412" data-name="Group 2412" transform="translate(0 0)">
          <g id="Group_2197" data-name="Group 2197">
            <path id="Path_958" data-name="Path 958" d="M88.705,209.619c-.014.007.014,0,0,0s0,.081.241.248a5.288,5.288,0,0,1,2.337,4.779,5.4,5.4,0,0,1-5.641,5.143v4.118c5.211,0,9.948-3.641,9.948-8.839a9.088,9.088,0,0,0-1.81-5.476,5.715,5.715,0,0,0,.569-.791c.317-.553.378-1.223.378-3.463v-9.708H81.359v7.737H77.1v4.252h8.615v-7.641h4.808v6.588a3.372,3.372,0,0,1-1.82,3.055" transform="translate(-67.851 -195.624)" fill="#008f8a"/>
            <path id="Path_959" data-name="Path 959" d="M36.6,195.626h-1.24a8.506,8.506,0,0,0-6.222,2.525c-1.668,1.863-1.826,3.516-1.826,6.242v19.5H40.885v-7.656h4.3v-4.3H36.561v7.716H31.629V203.5s-.317-3.511,3.982-3.608l.984-.045Z" transform="translate(-27.31 -195.624)" fill="#007fbc"/>
          </g>
          <g id="Group_2201" data-name="Group 2201" transform="translate(35.466 6.643)">
            <g id="Group_2198" data-name="Group 2198" transform="translate(0 0.192)">
              <path id="Path_960" data-name="Path 960" d="M256.305,278.219v3.329l-13.174.012v-4.583h11.582c1.688,0,1.593,1.242,1.593,1.242M253.747,280v-1.4h-8.23V280Z" transform="translate(-239.664 -269.88)" fill="#1a1311"/>
              <path id="Path_961" data-name="Path 961" d="M229.789,315.011v-8.073h16.34a1.994,1.994,0,0,1,.8.23,1.811,1.811,0,0,1,1.042,1.549V315H245.23v-.553H232.522v.556H229.79m15.439-5.138v-1.1h-5.093v1.1h5.093m-7.606,0v-1.1h-5.089v1.1h5.089m7.606,2.805v-1.094h-5.093v1.094h5.093m-7.606.009v-1.1h-5.089v1.1Z" transform="translate(-228.782 -294.323)" fill="#1a1311"/>
              <rect id="Rectangle_3525" data-name="Rectangle 3525" width="13.184" height="1.72" transform="translate(3.457 4.503)" fill="#1a1311"/>
              <path id="Path_962" data-name="Path 962" d="M224.326,245.154V239.87h8.728V238.5H235.7v1.281h6.889s1.761.132,1.761,1.6v3.767h-2.4v-3.024h-15.09v3.024Z" transform="translate(-224.326 -238.5)" fill="#1a1311"/>
            </g>
            <g id="Group_2199" data-name="Group 2199" transform="translate(26.51 0.145)">
              <path id="Path_963" data-name="Path 963" d="M436.837,248.286l1.67-5.515a1.5,1.5,0,0,0-1.461-1.794h-6.983v20.3H432.6v-3.67s.76,1.133,1.174,1.7a4.16,4.16,0,0,0,2.012-.506,5.612,5.612,0,0,0,3.036-4.257,8.74,8.74,0,0,0-1.983-6.256m-.578,6.466a3.654,3.654,0,0,1-2.2,2.131,2.779,2.779,0,0,1-1.487.06v-13.45h3.245c-.486,1.753-1.1,3.577-1.644,5.3.172.32.546.612.744.964a6.175,6.175,0,0,1,1.337,4.994Z" transform="translate(-418.637 -240.474)" fill="#1a1311"/>
              <path id="Path_964" data-name="Path 964" d="M378.655,247.744V245.12h-3.646v-1.992h3.565v-2.517h-3.561V238.24h-2.76v2.371H368.1v2.575h4.153v1.951H368.1V247.7h4.157v1.921h-4.1v2.623h3.979a7.126,7.126,0,0,1-2.485,4.793l1.5,2.005c3.708-2.07,3.88-6.777,3.88-6.777h3.618v-2.642h-3.643v-1.877Z" transform="translate(-368.1 -238.24)" fill="#1a1311"/>
            </g>
            <g id="Group_2200" data-name="Group 2200" transform="translate(79.8 0)">
              <path id="Path_965" data-name="Path 965" d="M667.2,240.423h-7.633v1.557h17.772v-1.557h-7.692v-.759H678.1v-1.547h-8.455v-.658h-2.451v.658h-8.349v1.547h8.349Z" transform="translate(-658.524 -237.459)" fill="#1a1311"/>
              <path id="Path_966" data-name="Path 966" d="M679.088,265.68a1.936,1.936,0,0,0-.948-.181H659.81v1.572h16.97a.818.818,0,0,1,.471.106c.164.12.138.429.138.429v1.566h2.033v-2.821a.854.854,0,0,0-.335-.671Z" transform="translate(-659.308 -260.326)" fill="#1a1311"/>
              <path id="Path_967" data-name="Path 967" d="M659.935,280.44v1.531h17.989V280.44h-7.4v-.785h5.431v-1.587H661.777v1.587h6.312v.785Z" transform="translate(-659.411 -270.577)" fill="#1a1311"/>
              <path id="Path_968" data-name="Path 968" d="M657.086,305.128h15.172v1.149h-5.227v1.644h5.227v2.128c0,.749-1.516.845-2.443.785l.935,1.841a5.537,5.537,0,0,0,3.627-1.129c.457-.476.338-1.48.338-3.627h1.841v-1.643h-1.835v-1.149H677.2v-1.6h-20.11Z" transform="translate(-657.086 -291.342)" fill="#1a1311"/>
              <path id="Path_969" data-name="Path 969" d="M671.354,315.464H664.48v5.861h2.077v-.534h3.457v.534h2.076v-5.1a.777.777,0,0,0-.2-.6.892.892,0,0,0-.531-.159m-1.33,2.211V319.2h-3.467V317.11h3.016a.675.675,0,0,1,.361.205.627.627,0,0,1,.09.361Z" transform="translate(-663.117 -301.079)" fill="#1a1311"/>
              <path id="Path_970" data-name="Path 970" d="M711.122,329.242l-1.513,1.215,1.606,2.017,1.51-1.215Z" transform="translate(-699.924 -312.316)" fill="#1a1311"/>
            </g>
            <path id="Path_971" data-name="Path 971" d="M517.44,248.714a26.122,26.122,0,0,1-1.019,2.583,20.343,20.343,0,0,1-7.985,8.612l-1.9-1.99a17.079,17.079,0,0,0,4.333-3.2,19.257,19.257,0,0,0,5.3-14.186v-1.1h2.73s-.043.644-.07,1.1c-.044.71-.057,1.885-.045,1.942a21.676,21.676,0,0,0,.693,4.669q1.877,6.058,8.983,11.085l-2.259,1.742c-1.114-.928-2.062-1.742-2.834-2.46a22.436,22.436,0,0,1-5.923-8.8Z" transform="translate(-454.496 -239.074)" fill="#1a1311"/>
          </g>
        </g>
      </g>
      <g id="Rectangle_6897" data-name="Rectangle 6897" transform="translate(0 33.81)" fill="none" stroke="#363636" stroke-width="0.5">
        <rect width="136" height="22" rx="1" stroke="none"/>
        <rect x="0.25" y="0.25" width="135.5" height="21.5" rx="0.75" fill="none"/>
      </g>
      <text id="職安系統管理平台" transform="translate(8 48.825)" font-size="12" font-family="PingFangTC-Regular, PingFang TC" letter-spacing="0.3em"><tspan x="0" y="0">職安系統管理平台</tspan></text>
    </g>
  </g>
</svg>
